<svg version="1" xmlns="http://www.w3.org/2000/svg" width="682.667" height="682.667" viewBox="0 0 512.000000 512.000000"><path d="M0 256v256h512V0H0v256zm238-71.6v16.5l-40.7.3c-39 .4-41.1.5-46.6 2.6-17 6.3-29.7 19.4-35.3 36.2-2.8 8.3-2.5 24.4.4 33.2 6.1 17.7 21.2 31.6 39.7 36.3 4.8 1.2 13.3 1.5 44.2 1.5H238v33.2l-41.7-.5c-38.8-.4-42.4-.6-49.8-2.5-29.9-8.1-54.1-32.3-62.6-62.8-3-10.9-3.3-31.5-.5-42.4 6.7-26.2 23.9-47.9 47.1-59.1 16.1-7.8 22.9-8.6 69.8-8.8l37.7-.1v16.4zm126-14c25.6 6.5 46.7 23.6 58.5 47.4 6.3 12.9 8 20.6 8 38.2 0 13.1-.4 16.7-2.3 23.4-4.5 15.8-13.2 29.8-25.2 41-6.3 5.8-15.7 12.6-17.4 12.6-.5 0-1.7.6-2.5 1.3-2.2 1.9-11.3 5.3-19.6 7.4-5.9 1.4-13.5 1.7-48.2 2.1l-41.3.4v-33.1l40.8-.3c40.1-.3 40.8-.3 47.2-2.7 17.4-6.4 32.3-22.9 35.9-39.9 2.1-10.2 1-24.2-2.6-32.7-6-14-19-26.3-33.3-31.6-6.4-2.3-7.3-2.3-47.2-2.7l-40.8-.3v-33.1l41.8.5c34.6.3 42.8.7 48.2 2.1zM326 256v17H187v-34h139v17z"/></svg>