<?xml version="1.0" standalone="no"?>
<!DOCTYPE svg PUBLIC "-//W3C//DTD SVG 20010904//EN"
 "http://www.w3.org/TR/2001/REC-SVG-20010904/DTD/svg10.dtd">
<svg version="1.0" xmlns="http://www.w3.org/2000/svg"
 width="512.000000pt" height="512.000000pt" viewBox="0 0 512.000000 512.000000"
 preserveAspectRatio="xMidYMid meet">
<metadata>
Created by potrace 1.11, written by Peter Selinger 2001-2013
</metadata>
<g transform="translate(0.000000,512.000000) scale(0.100000,-0.100000)"
fill="#000000" stroke="none">
<path d="M0 2560 l0 -2560 2560 0 2560 0 0 2560 0 2560 -2560 0 -2560 0 0
-2560z m2380 716 l0 -165 -407 -3 c-390 -4 -411 -5 -466 -26 -170 -63 -297
-194 -353 -362 -28 -83 -25 -244 4 -332 61 -177 212 -316 397 -363 48 -12 133
-15 442 -15 l383 0 0 -166 0 -166 -417 5 c-388 4 -424 6 -498 25 -299 81 -541
323 -626 628 -30 109 -33 315 -5 424 67 262 239 479 471 591 161 78 229 86
698 88 l377 1 0 -164z m1260 140 c256 -65 467 -236 585 -474 63 -129 80 -206
80 -382 0 -131 -4 -167 -23 -234 -45 -158 -132 -298 -252 -410 -63 -58 -157
-126 -174 -126 -5 0 -17 -6 -25 -13 -22 -19 -113 -53 -196 -74 -59 -14 -135
-17 -482 -21 l-413 -4 0 166 0 165 408 3 c401 3 408 3 472 27 174 64 323 229
359 399 21 102 10 242 -26 327 -60 140 -190 263 -333 316 -64 23 -73 23 -472
27 l-408 3 0 165 0 166 418 -5 c346 -3 428 -7 482 -21z m-380 -856 l0 -170
-695 0 -695 0 0 170 0 170 695 0 695 0 0 -170z"/>
</g>
</svg>
